<?xml version="1.0" encoding="UTF-8" standalone="no"?>
<!DOCTYPE svg PUBLIC "-//W3C//DTD SVG 1.1//EN" "http://www.w3.org/Graphics/SVG/1.1/DTD/svg11.dtd">
<!-- Created with Vectornator (http://vectornator.io/) -->
<svg height="100%" stroke-miterlimit="10" style="fill-rule:nonzero;clip-rule:evenodd;stroke-linecap:round;stroke-linejoin:round;" version="1.1" viewBox="0 0 400 400" width="100%" xml:space="preserve" xmlns="http://www.w3.org/2000/svg" xmlns:vectornator="http://vectornator.io" xmlns:xlink="http://www.w3.org/1999/xlink">
<defs/>
<g id="Layer-1" vectornator:layerName="Layer 1">
<path d="M126.838 197.006C126.838 148.149 174.79 108.542 233.942 108.542C293.094 108.542 341.046 148.149 341.046 197.006C341.046 245.864 293.094 285.471 233.942 285.471C174.79 285.471 126.838 245.864 126.838 197.006Z" fill="none" opacity="1" stroke="#007aff" stroke-linecap="butt" stroke-linejoin="round" stroke-width="10" vectornator:layerName="Oval 1"/>
<g opacity="1" vectornator:layerName="Curve 1">
<path d="M347.219 19C344.012 19.093 340.806 19.3695 337.625 19.7812C329.458 20.8385 321.388 22.7817 313.625 25.5312C310.177 26.7526 306.815 28.2464 303.469 29.7188C300.115 31.1945 296.793 32.6766 293.469 34.2188C281.344 39.8437 269.427 46.0435 258.156 53.25C256.121 50.8236 254.124 48.3525 251.906 46.0938C248.709 42.8373 245.105 40.1734 240.938 38.3125C230.069 33.4596 217.476 31.9968 205.688 31.6562C193.661 31.3089 181.596 32.3023 169.75 34.375C159.027 36.2513 148.396 39.0401 138.281 43.0938C130.066 46.3864 122.071 50.5421 115.188 56.1562C112.098 58.6764 109.19 61.5076 106.812 64.7188C105.467 66.5362 104.335 68.481 103.594 70.625C103.213 71.7258 102.921 72.8746 102.781 74.0312C101.655 83.3187 109.223 91.0973 114.469 97.875C116.411 100.385 118.34 102.986 119.688 105.875C120.027 106.603 120.263 107.361 120.5 108.125C119.608 107.99 118.722 107.855 117.844 107.656C115.145 107.044 112.474 106.255 109.812 105.5C104.874 104.099 99.892 102.646 94.7812 102.031C91.2422 101.606 87.5206 101.619 84.1562 102.938C82.9856 103.396 81.8848 103.999 80.875 104.75C80.1024 105.324 79.3732 105.985 78.75 106.719C75.3355 110.741 75.7675 115.639 76.4062 120.531C76.8919 124.251 77.6461 127.941 78.8438 131.5C79.574 133.67 80.4612 135.803 81.5625 137.812C84.3916 142.975 88.6349 147.218 94.0625 149.594C102.304 153.2 111.786 152.333 120.219 149.906C127.261 147.88 133.949 144.702 140.219 140.938C147.742 136.42 154.76 130.953 161 124.781C162.854 122.948 164.649 121.044 166.344 119.062C167.477 117.738 168.462 116.293 169.625 115C170.611 113.904 171.704 112.909 172.781 111.906C176.505 108.44 180.291 105.05 183.844 101.406C186.113 99.0794 188.37 96.6407 190.188 93.9375C191.688 91.7067 193.354 88.7286 192.594 85.9375C191.88 83.3173 188.756 81.3993 186.406 80.4375C181.63 78.4826 176.443 78.2255 171.438 77.2188C169.787 76.8868 168.263 76.3854 166.812 75.5C165.245 74.5434 163.848 73.2274 162.438 72.0625C160.226 70.2368 157.876 68.6265 155.094 67.8125C152.001 66.9076 148.803 66.526 145.594 66.375C138.151 66.0248 130.75 66.9844 123.312 67.0312C121.815 66.3826 119.779 67.7268 118.781 70.0312C117.783 72.3357 118.19 74.7264 119.688 75.375C125.311 75.3179 130.911 74.7755 136.531 74.625C140.704 74.5132 144.987 74.5682 149.031 75.7188C153.061 76.8651 155.808 80.6232 159.281 82.7188C163.265 85.1228 167.882 85.5163 172.375 86.2188C174.889 86.6117 177.407 87.0576 179.781 88C180.648 88.3439 181.509 88.8296 182.219 89.4375C182.661 89.8159 182.682 89.8904 183.031 90.3125C183.031 90.3301 183.004 90.355 183 90.375C182.982 90.4767 182.971 90.5917 182.938 90.6875C182.875 90.8669 182.804 91.0174 182.719 91.1875C182.52 91.5842 182.277 91.9748 182.031 92.3438C181.138 93.6834 180.078 94.901 179 96.0938C175.943 99.476 172.586 102.587 169.25 105.688C167.015 107.764 164.675 109.799 162.656 112.094C161.682 113.201 160.843 114.423 159.906 115.562C158.271 117.552 156.511 119.431 154.688 121.25C149.055 126.871 142.696 131.831 135.844 135.875C133.824 137.067 131.741 138.175 129.625 139.188C120.151 143.723 107.595 147.321 97.8438 141.562C96.5149 140.778 95.2739 139.845 94.1562 138.781C92.3893 137.1 90.9283 135.114 89.7188 133C87.7637 129.583 86.4992 125.795 85.625 121.969C85.0184 119.314 84.5957 116.645 84.3125 113.938C84.1799 112.67 84.1596 111.34 84.4688 110.094C84.7554 108.938 84.8549 108.856 85.9688 108.656C86.5033 108.56 87.0513 108.518 87.5938 108.5C89.1259 108.449 90.6419 108.593 92.1562 108.812C92.5976 108.877 93.0606 108.955 93.5 109.031C94.4359 109.194 95.3219 109.39 96.25 109.594C98.698 110.13 101.116 110.77 103.531 111.438C105.446 111.966 107.363 112.545 109.281 113.062C110.626 113.425 111.985 113.759 113.344 114.062C118.203 115.148 124.199 115.873 127.562 111.219C128.157 110.396 128.552 109.443 128.688 108.438C128.864 107.127 128.583 105.805 128.188 104.562C127.474 102.321 126.322 100.239 125.031 98.2812C120.896 92.0109 115.184 86.8717 111.656 80.1875C109.737 76.5499 109.159 72.3416 111 68.5625C111.995 66.5201 113.491 64.7154 115.031 63.0625C118.457 59.3854 122.572 56.3789 126.875 53.8125C132.905 50.2162 139.406 47.4206 146.031 45.125C154.459 42.2049 163.179 40.1363 171.969 38.6562C182.382 36.9028 192.969 36.0334 203.531 36.2188C214.587 36.4127 226.099 37.5841 236.438 41.75C240.293 43.3034 243.666 45.4427 246.719 48.2812C249.285 50.668 251.585 53.3409 253.875 56C253.514 56.2441 253.141 56.4722 252.781 56.7188C247.076 60.6296 241.577 64.8575 236.5 69.5625C232.003 73.7301 228.013 78.0723 225.094 83.5C219.666 93.5913 218.078 105.018 214.219 115.688C211.451 123.339 207.328 130.018 199.438 132.906C196.316 134.049 193.023 134.489 189.719 134.656C189.42 134.543 189.049 134.821 188.875 135.281C188.701 135.741 188.795 136.231 189.094 136.344C192.669 136.162 196.217 135.642 199.594 134.406C204.915 132.459 209.189 128.798 212.188 124C213.836 121.361 215.1 118.482 216.156 115.562C219.981 104.991 221.499 93.622 226.875 83.625C229.934 77.9375 234.314 73.4417 239.094 69.1562C244.019 64.7399 249.298 60.7592 254.781 57.0625C258.048 60.8327 261.405 64.5087 265.688 67.2188C271.732 71.0434 278.821 72.9716 285.812 74.1562C297.144 76.0764 308.729 76.059 320.188 76.3125C327.167 76.4669 334.256 76.3802 341.094 74.8125C346.558 73.5597 351.73 71.1505 356.75 68.7188C363.219 65.5851 369.577 62.0264 375.344 57.7188C376.556 56.8133 377.731 55.8969 378.875 54.9062C383.588 50.8241 389.826 44.042 387.062 37.25C386.143 34.9896 384.559 32.8924 382.969 31.0625C375.983 23.0254 365.183 19.8404 354.875 19.125C352.331 18.9484 349.768 18.9261 347.219 19ZM346.406 20.9375C359.083 20.687 373.522 23.3682 381.562 34.125C382.521 35.4071 383.422 36.7932 384.094 38.25C386.626 43.7425 381.892 49.1757 378.062 52.625C377.429 53.1952 376.693 53.8406 376.031 54.375C375.289 54.974 374.551 55.5295 373.781 56.0938C372.603 56.9577 371.415 57.7704 370.188 58.5625C364.906 61.9706 359.321 64.9161 353.594 67.5C349.277 69.4475 344.889 71.3011 340.219 72.1875C330.504 74.0313 320.402 73.0091 310.594 72.6875C301.073 72.3753 291.44 71.7668 282.188 69.3438C277.117 68.0158 271.976 66.1176 267.75 62.9375C264.459 60.4605 261.731 57.4253 259.094 54.3125C270.195 47.2368 281.944 41.1599 293.875 35.625C297.717 33.8427 301.588 32.1021 305.469 30.4062C308.205 29.2104 310.933 28.0288 313.75 27.0312C321.29 24.3607 329.186 22.5814 337.125 21.625C340.21 21.2533 343.299 20.9989 346.406 20.9375Z" fill="#b494f9" stroke="none"/>
</g>
<path d="M156.853 272.222L305.016 173.826L383.328 291.747L235.165 390.142L156.853 272.222Z" fill="#32465b" fill-rule="nonzero" opacity="1" stroke="#b494f9" stroke-linecap="butt" stroke-linejoin="round" stroke-width="12.039" vectornator:layerName="Rectangle 1"/>
<g fill="#32465b" opacity="1" stroke="none" vectornator:layerName="Text 1"/>
<g fill="#94f3f9" opacity="1" stroke="#010c17" stroke-linecap="butt" stroke-linejoin="round" stroke-width="1.01" vectornator:layerName="Text 2">
<path d="M110.468 173.826C110.756 173.826 111.116 173.778 111.116 173.538L111.116 169.722C111.116 169.41 110.996 169.29 110.708 169.29L105.524 169.29L105.524 160.242L105.572 160.242L115.004 173.466C115.172 173.778 115.412 173.826 115.652 173.826L117.908 173.826C118.22 173.826 118.46 173.706 118.628 173.538L128.516 160.002L128.588 160.002L128.588 169.29L123.332 169.29C123.092 169.29 122.852 169.41 122.852 169.602L122.852 173.418C122.852 173.706 123.092 173.826 123.332 173.826L145.988 173.826C146.348 173.826 146.588 173.706 146.588 173.466L146.588 169.842C146.588 169.41 146.348 169.29 146.108 169.29L140.804 169.29L140.804 160.362L145.988 160.362C146.228 160.362 146.396 160.29 146.396 160.05L146.396 156.234C146.396 155.994 146.276 155.826 145.988 155.826L123.716 155.826C123.356 155.826 123.164 155.994 122.972 156.186L120.644 159.882L117.98 156.234C117.788 156.066 117.596 155.826 117.116 155.826L93.644 155.826C93.308 155.826 93.116 155.946 93.116 156.186L93.116 159.93C93.116 160.29 93.38 160.362 93.572 160.362L98.9 160.362L98.9 169.29L93.692 169.29C93.212 169.29 93.092 169.602 93.092 169.77L93.092 173.346C93.092 173.658 93.212 173.826 93.452 173.826L110.468 173.826Z"/>
<path d="M163.1 173.874C170.108 173.874 173.204 170.754 174.188 168.498C174.26 168.354 174.188 168.162 174.044 168.162L169.556 168.162C169.388 168.162 169.292 168.282 169.196 168.402C167.828 169.794 166.22 170.226 163.244 170.226C161.732 170.226 158.444 170.034 158.444 167.394C158.444 164.922 161.612 164.658 162.644 164.658C163.604 164.658 164.564 164.778 165.236 165.234C166.796 166.338 169.196 167.202 170.732 167.202C172.94 167.202 174.476 166.17 174.476 165.066C174.476 161.706 166.652 160.962 163.748 160.962L159.932 160.962C157.58 160.962 154.004 161.274 151.268 162.498C149.924 163.098 147.308 164.778 147.308 167.538C147.308 170.346 151.508 172.242 152.108 172.506C153.236 173.01 156.092 173.874 159.668 173.874L163.1 173.874Z"/>
<path d="M203.54 169.41L203.54 160.17L210.428 160.17L210.428 163.314C210.428 163.602 210.548 163.602 210.692 163.602L218.42 163.602C218.636 163.602 218.708 163.386 218.708 163.218L218.708 156.402C218.708 155.874 218.54 155.826 218.276 155.826L176.3 155.826C176.132 155.826 176.012 155.994 176.012 156.162L176.012 163.242C176.012 163.434 176.18 163.554 176.396 163.554L184.412 163.554C184.556 163.554 184.748 163.554 184.748 163.386L184.748 160.17L191.18 160.17L191.18 169.41L185.444 169.41C185.3 169.41 185.18 169.602 185.18 169.722L185.18 173.49C185.18 173.73 185.348 173.826 185.444 173.826L209.468 173.826C209.684 173.826 209.828 173.802 209.828 173.682L209.828 169.554C209.828 169.434 209.684 169.41 209.468 169.41L203.54 169.41Z"/>
<path d="M236.924 173.874C245.924 173.874 247.94 170.25 248.54 168.978C248.564 168.906 248.516 168.69 248.3 168.69L242.66 168.69C242.588 168.69 242.492 168.738 242.396 168.81C241.244 169.986 239.468 170.226 237.356 170.226L234.98 170.226C232.676 170.226 230.156 169.602 229.964 167.706L248.252 167.706C248.636 167.706 248.78 167.634 248.78 167.514L248.78 167.082C248.78 163.146 241.292 160.962 236.084 160.962L231.524 160.962C230.276 160.962 218.804 161.274 218.804 167.394C218.804 173.49 229.604 173.874 234.284 173.874L236.924 173.874ZM230.276 165.69C230.78 164.922 231.524 164.178 234.332 164.178C236.492 164.178 237.428 164.97 237.932 165.69L230.276 165.69Z"/>
<path d="M258.764 170.13L258.764 170.082L261.26 168.234L264.548 170.082L264.548 170.13L262.076 170.13C261.956 170.13 261.884 170.298 261.884 170.49L261.884 173.586C261.884 173.706 262.052 173.826 262.22 173.826L283.052 173.826C283.292 173.826 283.436 173.682 283.436 173.37L283.436 170.37C283.436 170.226 283.268 170.13 283.004 170.13L278.132 170.13L274.892 168.546L279.62 164.658L283.292 164.658C283.364 164.658 283.436 164.466 283.436 164.346L283.436 161.202C283.436 161.106 283.316 161.034 283.196 161.034L272.06 161.034C271.94 161.034 271.868 161.154 271.868 161.25L271.868 164.418C271.868 164.538 271.916 164.658 272.084 164.658L274.196 164.658L271.652 166.938L267.476 164.706L267.476 164.658L270.764 164.658C270.884 164.658 270.932 164.466 270.932 164.298L270.932 161.274C270.932 161.154 270.764 161.034 270.596 161.034L249.86 161.034C249.62 161.034 249.476 161.202 249.476 161.49L249.476 164.418C249.476 164.562 249.644 164.658 249.908 164.658L254.684 164.658L257.78 166.53L252.98 170.13L248.924 170.13C248.876 170.13 248.756 170.298 248.756 170.418L248.756 173.682C248.756 173.778 248.876 173.826 248.996 173.826L260.756 173.826C260.876 173.826 260.948 173.706 260.948 173.61L260.948 170.37C260.948 170.25 260.876 170.13 260.708 170.13L258.764 170.13Z"/>
<path d="M288.932 170.25C288.932 173.178 292.676 173.826 293.564 173.826L299.828 173.826C305.852 173.826 306.932 168.498 306.932 167.322C306.932 167.082 306.86 166.962 306.62 166.962L303.884 166.962C303.596 166.962 303.524 167.274 303.476 167.514C303.044 169.146 302.276 170.13 300.788 170.13C299.42 170.13 298.82 168.81 298.82 168.114L298.82 164.706L303.476 164.706C303.764 164.706 304.004 164.466 304.004 164.298L304.004 161.658C304.004 161.25 303.596 161.202 303.284 161.202L298.82 161.202L298.82 156.306C298.82 156.066 298.628 155.946 298.388 155.946L293.396 155.946C293.252 155.946 293.084 156.186 293.036 156.426C292.148 160.002 290.3 161.202 286.244 161.202L284.78 161.202C284.54 161.202 284.396 161.346 284.396 161.634L284.396 164.466C284.396 164.61 284.564 164.706 284.828 164.706L288.932 164.706L288.932 170.25Z"/>
</g>
</g>
</svg>
